Coordinates
version=1
nRows=26
nColumns=24
inDegrees=yes

Units are S.I. units (second, meters, Newtons, ...)
Angles are in degrees.

endheader
time	pelvis_tilt	pelvis_list	pelvis_rotation	pelvis_tx	pelvis_ty	pelvis_tz	hip_flexion_r	hip_adduction_r	hip_rotation_r	knee_angle_r	ankle_angle_r	subtalar_angle_r	mtp_angle_r	hip_flexion_l	hip_adduction_l	hip_rotation_l	knee_angle_l	ankle_angle_l	subtalar_angle_l	mtp_angle_l	lumbar_extension	lumbar_bending	lumbar_rotation
      5.24000000	     -4.86640066	     12.25251904	     -9.79661513	     -0.95005257	     -0.02766468	     -0.36699566	     10.35461849	    -18.06298332	     -1.80189497	    -59.11171373	    -29.94857317	    -11.26894674	     15.87449777	     21.52210384	     13.17569425	    -13.55188609	    -19.22084611	      2.95375558	    -11.13091721	      5.17439372	      3.69588687	    -12.94379045	      6.06692755
      5.24500000	     -4.73978111	     12.12500802	     -9.79787704	     -0.94363045	     -0.02638560	     -0.36729403	     11.12004816	    -17.87798165	     -1.70865663	    -60.03053152	    -28.31244899	    -11.96044647	     13.72468257	     20.64337042	     13.21235472	    -13.60520136	    -18.65693525	      2.94305067	    -10.94066472	      6.91225880	      3.53011993	    -12.79740215	      5.83126030
      5.25000000	     -4.66879987	     12.02174926	     -9.76089619	     -0.93711984	     -0.02513530	     -0.36781755	     11.89459945	    -17.73177042	     -1.60560812	    -60.75266712	    -27.14714318	    -12.66965112	     13.90599750	     19.82585595	     13.31938980	    -13.48307771	    -18.13056780	      3.18154165	    -10.77930272	      7.02732807	      3.43873943	    -12.64479813	      5.58873498
      5.25500000	     -4.62365322	     11.82484083	     -9.73264560	     -0.93069694	     -0.02383334	     -0.36832905	     12.67638353	    -17.44588502	     -1.49463697	    -61.37888744	    -26.04262603	    -13.38404210	     14.13014050	     19.03555975	     13.32467272	    -13.31131971	    -17.63037002	      3.39121879	    -10.72324454	      7.07070627	      3.35246996	    -12.38805069	      5.33909679
      5.26000000	     -4.52960586	     11.59643194	     -9.73366097	     -0.92423647	     -0.02249633	     -0.36878902	     13.39444022	    -17.11297292	     -1.32313092	    -61.96292017	    -24.62266927	    -13.60642290	     14.12457442	     18.18547907	     13.29107719	    -13.12558100	    -17.14176377	      3.64123673	    -10.56784280	      7.26170164	      3.23110385	    -12.10130395	      5.16219226
      5.26500000	     -4.49132413	     11.39544541	     -9.71350622	     -0.91785752	     -0.02124350	     -0.36921349	     14.18780210	    -16.78674718	     -1.21755452	    -62.47161500	    -23.57317429	    -14.26415684	     14.29918390	     17.42069658	     13.27892369	    -12.94547533	    -16.66930599	      3.82156259	    -10.54284855	      7.28903401	      3.15934211	    -11.84861172	      4.92541389
      5.27000000	     -4.40603663	     11.15296148	     -9.72468478	     -0.91148361	     -0.01996557	     -0.36960827	     14.95246353	    -16.40091437	     -1.10063952	    -63.05257154	    -21.68787054	    -14.22674544	     11.98686613	     16.58664087	     13.24243477	    -12.58126097	    -16.17368854	      3.90699571	    -10.71805482	      7.36850824	      3.04187742	    -11.54678082	      4.76106138
      5.27500000	     -4.40211659	     10.85583642	     -9.69156542	     -0.90510420	     -0.01874881	     -0.36999139	     15.72573887	    -15.92011265	     -0.98217218	    -63.41971589	    -20.65511613	    -14.61450543	     12.16049744	     15.85986041	     13.11538567	    -12.30896917	    -15.76341936	      4.13398501	    -10.67838435	      7.33869685	      3.00793280	    -11.18693830	      4.57927774
      5.28000000	     -4.38781298	     10.56589054	     -9.66792978	     -0.89874429	     -0.01756365	     -0.37037003	     16.48483051	    -15.43725956	     -0.85285615	    -63.73328189	    -19.60726549	    -14.89899746	     12.24311173	     15.12343559	     13.00181526	    -11.98257701	    -15.34475569	      4.32329115	    -10.74320992	      7.19263201	      2.96355408	    -10.83484804	      4.41351186
      5.28500000	     -4.34992664	     10.35565082	     -9.60640460	     -0.89233638	     -0.01642284	     -0.37082465	     17.24050520	    -15.06923573	     -0.81133897	    -64.07168080	    -18.20325561	    -14.99176047	     10.73051447	     14.35047561	     13.01956234	    -11.41389491	    -14.92031288	      4.70863230	    -10.89111362	      5.43024174	      2.91647796	    -10.57280227	      4.19534724
      5.29000000	     -4.35170060	     10.07756392	     -9.59708213	     -0.88610170	     -0.01533722	     -0.37110303	     18.01640589	    -14.55635483	     -0.65976096	    -64.26449661	    -17.33316010	    -15.29732336	     10.87223848	     13.64818819	     12.88750181	    -11.13208787	    -14.51594396	      4.91818967	    -10.87080309	      5.37777563	      2.88457214	    -10.24237020	      4.03703248
      5.29500000	     -4.28141003	      9.83164471	     -9.52981371	     -0.87979950	     -0.01419411	     -0.37152838	     18.68643628	    -14.13951901	     -0.64185819	    -64.43424422	    -16.03240083	    -15.29709545	      9.61525274	     12.84198290	     12.85943208	    -10.58761519	    -14.09619052	      5.28277821	    -11.04187806	      3.60065054	      2.78467159	     -9.95894071	      3.82188866
      5.30000000	     -4.31242641	      9.56900301	     -9.50022035	     -0.87354410	     -0.01316286	     -0.37177721	     19.45267209	    -13.63236408	     -0.53062159	    -64.47742364	    -15.21477607	    -15.52878749	      9.74908321	     12.13434568	     12.73071692	    -10.31960820	    -13.61709995	      5.46093905	    -10.96936251	      3.54522973	      2.80047574	     -9.64729109	      3.69387831
      5.30500000	     -4.21652109	      9.33254312	     -9.40316847	     -0.86726596	     -0.01203711	     -0.37218881	     20.02763390	    -13.23273758	     -0.52089247	    -64.44866769	    -14.11442094	    -15.41649804	      9.60054902	     11.26368354	     12.68957606	     -9.95184188	    -13.08589020	      5.59445440	    -11.03080563	      3.02278818	      2.67120011	     -9.38764407	      3.44988596
      5.31000000	     -4.26231987	      9.08334893	     -9.39087406	     -0.86113124	     -0.01104800	     -0.37238021	     20.79331206	    -12.71662512	     -0.41616117	    -64.34266749	    -13.39833476	    -15.66206448	      9.65637014	     10.55315922	     12.55794558	     -9.70985817	    -12.54190022	      5.71979736	    -10.96892816	      2.90216253	      2.69591254	     -9.09607952	      3.34706705
      5.31500000	     -4.07072902	      8.82800810	     -9.33348186	     -0.85498323	     -0.00983284	     -0.37270269	     21.24195092	    -12.29437606	     -0.46167155	    -64.17336878	    -12.20588001	    -15.57951186	      8.45096501	      9.54287892	     12.50370713	     -9.28203851	    -11.95545004	      6.03437552	    -10.98055672	      1.25781806	      2.45377056	     -8.83973964	      3.16804614
      5.32000000	     -4.16358063	      8.59011021	     -9.25618703	     -0.84893458	     -0.00897665	     -0.37296612	     22.00127504	    -11.81344395	     -0.43037984	    -63.92618986	    -11.36460741	    -15.56824287	      8.60891106	      8.88139903	     12.36675664	     -9.14551084	    -11.39297650	      6.18202174	    -10.76785152	      1.22232580	      2.50677740	     -8.56352380	      2.99822986
      5.32500000	     -4.13433171	      8.37665588	     -9.17267610	     -0.84286155	     -0.00803140	     -0.37326248	     22.59660184	    -11.40666449	     -0.43163175	    -63.59285012	    -10.46327560	    -15.41317032	      8.72858083	      8.05180416	     12.28054116	     -9.03000902	    -10.74945087	      6.29124044	    -10.49620121	      1.15558411	      2.43635023	     -8.33420852	      2.80114537
      5.33000000	     -4.11853987	      8.12509789	     -9.09695478	     -0.83687326	     -0.00711447	     -0.37351230	     23.17428651	    -10.94510623	     -0.45107602	    -63.16302559	     -9.63320120	    -15.32109002	      8.83548076	      7.23196261	     12.14069795	     -8.90889330	    -10.09743818	      6.37655129	    -10.23399610	      1.14032585	      2.36262766	     -8.06793036	      2.63415323
      5.33500000	     -4.11394676	      7.86680168	     -9.01187950	     -0.83092384	     -0.00627143	     -0.37378602	     23.74167670	    -10.48922943	     -0.50184544	    -62.65923910	     -8.83647099	    -15.19847137	      8.95524720	      6.42061967	     11.98776933	     -8.81730736	     -9.43113161	      6.46341770	     -9.93618938	      1.20163711	      2.29377341	     -7.79345041	      2.45220395
      5.34000000	     -4.12279770	      7.59492132	     -8.91564852	     -0.82499595	     -0.00549685	     -0.37406922	     24.29078001	    -10.02612642	     -0.57796520	    -62.07459931	     -8.05700848	    -15.04326274	      9.08643978	      5.62368593	     11.81214432	     -8.74012376	     -8.76520031	      6.54368271	     -9.60123695	      1.34738684	      2.22746204	     -7.50468787	      2.26329745
      5.34500000	     -4.13501546	      7.31474819	     -8.80665724	     -0.81910931	     -0.00479407	     -0.37438088	     24.81970504	     -9.57158675	     -0.69250327	    -61.41754025	     -7.31863451	    -14.86336460	      9.20655217	      4.83386932	     11.62455347	     -8.69168694	     -8.09620859	      6.61349092	     -9.24251510	      1.59730304	      2.15635163	     -7.20553475	      2.05745242
      5.35000000	     -4.16891409	      7.02798142	     -8.68422572	     -0.81327279	     -0.00418392	     -0.37467946	     25.34482558	     -9.11300267	     -0.82901122	    -60.68603414	     -6.60598718	    -14.67621187	      9.31733069	      4.08042846	     11.41791683	     -8.63044378	     -7.44810605	      6.67144824	     -8.87263930	      1.93244096	      2.09529094	     -6.90329262	      1.84944549
      5.35500000	     -4.17674139	      6.72090914	     -8.55542684	     -0.80746764	     -0.00361147	     -0.37498743	     25.80573697	     -8.64962893	     -1.00176327	    -59.86953867	     -5.92245053	    -14.48952564	      9.37710650	      3.31053926	     11.18962570	     -8.64141084	     -6.80904534	      6.68055394	     -8.49842837	      2.52128888	      1.99538376	     -6.58568184	      1.59032010
      5.36000000	     -4.23791532	      6.42923606	     -8.40719789	     -0.80170903	     -0.00318043	     -0.37528370	     26.30689968	     -8.19740607	     -1.18013975	    -58.99185801	     -5.27016093	    -14.30025789	      9.43624997	      2.62327077	     10.96088633	     -8.59588107	     -6.20968564	      6.66672952	     -8.15127957	      3.18088121	      1.94284133	     -6.28018255	      1.35067518
      5.36500000	     -4.25108835	      6.10525155	     -8.32344987	     -0.79594098	     -0.00277283	     -0.37545174	     26.73614932	     -7.68587446	     -1.32735063	    -58.03574697	     -4.74305202	    -14.19698672	      9.37209299	      1.86582440	     10.68997795	     -8.62741023	     -5.55215003	      6.49862096	     -7.83774953	      4.66932778	      1.84344975	     -5.95089684	      1.23115276
